<?xml version="1.0" standalone="no"?>
<!DOCTYPE svg PUBLIC "-//W3C//DTD SVG 20010904//EN"
 "http://www.w3.org/TR/2001/REC-SVG-20010904/DTD/svg10.dtd">
<svg version="1.0" xmlns="http://www.w3.org/2000/svg"
 width="1088.000000pt" height="1088.000000pt" viewBox="0 0 1088.000000 1088.000000"
 preserveAspectRatio="xMidYMid meet">
<metadata>
Created by potrace 1.14, written by Peter Selinger 2001-2017
</metadata>
<g transform="translate(0.000000,1088.000000) scale(0.100000,-0.100000)"
fill="#000000" stroke="none">
<path d="M2881 10752 c-30 -3 -133 -103 -915 -885 l-881 -881 0 -3610 0 -3609
883 -884 884 -883 2626 0 2627 0 400 400 c220 221 411 411 425 424 14 13 224
223 468 468 l442 443 0 822 0 821 -217 1 c-120 0 -220 1 -223 2 -3 1 -9 0 -15
-1 -13 -2 -207 -2 -220 0 -5 1 -14 2 -18 1 -12 -2 -690 -2 -702 0 -5 1 -14 0
-20 -1 -11 -2 -204 -2 -220 0 -5 0 -66 0 -135 0 -69 -1 -169 -2 -222 -2 l-98
0 0 -438 0 -438 -360 -360 -361 -360 -1537 1 -1536 0 -391 391 -391 392 0
2811 1 2811 390 391 390 391 1537 0 1538 0 360 -360 360 -360 0 -438 0 -438
1045 0 1045 0 0 821 0 821 -868 868 -868 868 -2594 1 c-1427 1 -2610 1 -2629
-1z"/>
</g>
</svg>
