<svg width="152" height="17" viewBox="0 0 152 17" fill="none" xmlns="http://www.w3.org/2000/svg">
<path d="M9.23438 11.4785H11.1094C11.0117 12.377 10.7546 13.181 10.3379 13.8906C9.92122 14.6003 9.33203 15.1634 8.57031 15.5801C7.80859 15.9902 6.85807 16.1953 5.71875 16.1953C4.88542 16.1953 4.12695 16.0391 3.44336 15.7266C2.76628 15.4141 2.18359 14.9714 1.69531 14.3984C1.20703 13.819 0.829427 13.1257 0.5625 12.3184C0.302083 11.5046 0.171875 10.5996 0.171875 9.60352V8.1875C0.171875 7.19141 0.302083 6.28971 0.5625 5.48242C0.829427 4.66862 1.21029 3.97201 1.70508 3.39258C2.20638 2.81315 2.80859 2.36719 3.51172 2.05469C4.21484 1.74219 5.00586 1.58594 5.88477 1.58594C6.95898 1.58594 7.86719 1.78776 8.60938 2.19141C9.35156 2.59505 9.92773 3.15495 10.3379 3.87109C10.7546 4.58073 11.0117 5.4043 11.1094 6.3418H9.23438C9.14323 5.67773 8.97396 5.10807 8.72656 4.63281C8.47917 4.15104 8.1276 3.77995 7.67188 3.51953C7.21615 3.25911 6.62044 3.12891 5.88477 3.12891C5.25326 3.12891 4.69661 3.24935 4.21484 3.49023C3.73958 3.73112 3.33919 4.07292 3.01367 4.51562C2.69466 4.95833 2.45378 5.48893 2.29102 6.10742C2.12826 6.72591 2.04688 7.41276 2.04688 8.16797V9.60352C2.04688 10.3001 2.11849 10.9544 2.26172 11.5664C2.41146 12.1784 2.63607 12.7155 2.93555 13.1777C3.23503 13.64 3.61589 14.0046 4.07812 14.2715C4.54036 14.5319 5.08724 14.6621 5.71875 14.6621C6.51953 14.6621 7.15755 14.5352 7.63281 14.2812C8.10807 14.0273 8.46615 13.6628 8.70703 13.1875C8.95443 12.7122 9.13021 12.1426 9.23438 11.4785ZM19.6348 14.1934V8.75391C19.6348 8.33724 19.5501 7.97591 19.3809 7.66992C19.2181 7.35742 18.9707 7.11654 18.6387 6.94727C18.3066 6.77799 17.8965 6.69336 17.4082 6.69336C16.9525 6.69336 16.5521 6.77148 16.207 6.92773C15.8685 7.08398 15.6016 7.28906 15.4062 7.54297C15.2174 7.79688 15.123 8.07031 15.123 8.36328H13.3164C13.3164 7.98568 13.4141 7.61133 13.6094 7.24023C13.8047 6.86914 14.0846 6.53385 14.4492 6.23438C14.8203 5.92839 15.263 5.6875 15.7773 5.51172C16.2982 5.32943 16.8776 5.23828 17.5156 5.23828C18.2839 5.23828 18.9609 5.36849 19.5469 5.62891C20.1393 5.88932 20.6016 6.2832 20.9336 6.81055C21.2721 7.33138 21.4414 7.98568 21.4414 8.77344V13.6953C21.4414 14.0469 21.4707 14.4212 21.5293 14.8184C21.5944 15.2155 21.6888 15.5573 21.8125 15.8438V16H19.9277C19.8366 15.7917 19.765 15.515 19.7129 15.1699C19.6608 14.8184 19.6348 14.4928 19.6348 14.1934ZM19.9473 9.59375L19.9668 10.8633H18.1406C17.6263 10.8633 17.1673 10.9056 16.7637 10.9902C16.36 11.0684 16.0215 11.1888 15.748 11.3516C15.4746 11.5143 15.2663 11.7194 15.123 11.9668C14.9798 12.2077 14.9082 12.4909 14.9082 12.8164C14.9082 13.1484 14.9831 13.4512 15.1328 13.7246C15.2826 13.998 15.5072 14.2161 15.8066 14.3789C16.1126 14.5352 16.487 14.6133 16.9297 14.6133C17.4831 14.6133 17.9714 14.4961 18.3945 14.2617C18.8177 14.0273 19.153 13.7409 19.4004 13.4023C19.6543 13.0638 19.791 12.735 19.8105 12.416L20.582 13.2852C20.5365 13.5586 20.4128 13.8613 20.2109 14.1934C20.0091 14.5254 19.7389 14.8444 19.4004 15.1504C19.0684 15.4499 18.6712 15.7005 18.209 15.9023C17.7533 16.0977 17.2389 16.1953 16.666 16.1953C15.9499 16.1953 15.3216 16.0553 14.7812 15.7754C14.2474 15.4954 13.8307 15.1211 13.5312 14.6523C13.2383 14.1771 13.0918 13.6465 13.0918 13.0605C13.0918 12.4941 13.2025 11.9961 13.4238 11.5664C13.6452 11.1302 13.9642 10.7689 14.3809 10.4824C14.7975 10.1895 15.2988 9.9681 15.8848 9.81836C16.4707 9.66862 17.125 9.59375 17.8477 9.59375H19.9473ZM26.0898 7.68945V16H24.2832V5.43359H25.9922L26.0898 7.68945ZM25.6602 10.3164L24.9082 10.2871C24.9147 9.56445 25.0221 8.89714 25.2305 8.28516C25.4388 7.66667 25.7318 7.12956 26.1094 6.67383C26.487 6.2181 26.9362 5.86654 27.457 5.61914C27.9844 5.36523 28.5671 5.23828 29.2051 5.23828C29.7259 5.23828 30.1947 5.3099 30.6113 5.45312C31.028 5.58984 31.3828 5.8112 31.6758 6.11719C31.9753 6.42318 32.2031 6.82031 32.3594 7.30859C32.5156 7.79036 32.5938 8.37956 32.5938 9.07617V16H30.7773V9.05664C30.7773 8.50326 30.696 8.06055 30.5332 7.72852C30.3704 7.38997 30.1328 7.14583 29.8203 6.99609C29.5078 6.83984 29.1237 6.76172 28.668 6.76172C28.2188 6.76172 27.8086 6.85612 27.4375 7.04492C27.0729 7.23372 26.7572 7.49414 26.4902 7.82617C26.2298 8.1582 26.0247 8.53906 25.875 8.96875C25.7318 9.39193 25.6602 9.84115 25.6602 10.3164ZM41.998 13.9492V1H43.8145V16H42.1543L41.998 13.9492ZM34.8887 10.834V10.6289C34.8887 9.82161 34.9863 9.08919 35.1816 8.43164C35.3835 7.76758 35.6667 7.19792 36.0312 6.72266C36.4023 6.2474 36.8418 5.88281 37.3496 5.62891C37.8639 5.36849 38.4368 5.23828 39.0684 5.23828C39.7324 5.23828 40.3118 5.35547 40.8066 5.58984C41.3079 5.81771 41.7311 6.15299 42.0762 6.5957C42.4277 7.0319 42.7044 7.55924 42.9062 8.17773C43.1081 8.79622 43.248 9.49609 43.3262 10.2773V11.1758C43.2546 11.9505 43.1146 12.6471 42.9062 13.2656C42.7044 13.8841 42.4277 14.4115 42.0762 14.8477C41.7311 15.2839 41.3079 15.6191 40.8066 15.8535C40.3053 16.0814 39.7194 16.1953 39.0488 16.1953C38.4303 16.1953 37.8639 16.0618 37.3496 15.7949C36.8418 15.528 36.4023 15.1536 36.0312 14.6719C35.6667 14.1901 35.3835 13.6237 35.1816 12.9727C34.9863 12.3151 34.8887 11.6022 34.8887 10.834ZM36.7051 10.6289V10.834C36.7051 11.3613 36.7572 11.8561 36.8613 12.3184C36.972 12.7806 37.1413 13.1875 37.3691 13.5391C37.597 13.8906 37.8867 14.1673 38.2383 14.3691C38.5898 14.5645 39.0098 14.6621 39.498 14.6621C40.097 14.6621 40.5885 14.5352 40.9727 14.2812C41.3633 14.0273 41.6758 13.6921 41.9102 13.2754C42.1445 12.8587 42.3268 12.4062 42.457 11.918V9.56445C42.3789 9.20638 42.265 8.86133 42.1152 8.5293C41.972 8.19076 41.7832 7.89128 41.5488 7.63086C41.321 7.36393 41.0378 7.15234 40.6992 6.99609C40.3672 6.83984 39.9733 6.76172 39.5176 6.76172C39.0228 6.76172 38.5964 6.86589 38.2383 7.07422C37.8867 7.27604 37.597 7.55599 37.3691 7.91406C37.1413 8.26562 36.972 8.67578 36.8613 9.14453C36.7572 9.60677 36.7051 10.1016 36.7051 10.6289ZM48.5898 5.43359V16H46.7734V5.43359H48.5898ZM46.6367 2.63086C46.6367 2.33789 46.7246 2.09049 46.9004 1.88867C47.0827 1.68685 47.3496 1.58594 47.7012 1.58594C48.0462 1.58594 48.3099 1.68685 48.4922 1.88867C48.681 2.09049 48.7754 2.33789 48.7754 2.63086C48.7754 2.91081 48.681 3.15169 48.4922 3.35352C48.3099 3.54883 48.0462 3.64648 47.7012 3.64648C47.3496 3.64648 47.0827 3.54883 46.9004 3.35352C46.7246 3.15169 46.6367 2.91081 46.6367 2.63086ZM58.1504 13.9492V1H59.9668V16H58.3066L58.1504 13.9492ZM51.041 10.834V10.6289C51.041 9.82161 51.1387 9.08919 51.334 8.43164C51.5358 7.76758 51.819 7.19792 52.1836 6.72266C52.5547 6.2474 52.9941 5.88281 53.502 5.62891C54.0163 5.36849 54.5892 5.23828 55.2207 5.23828C55.8848 5.23828 56.4642 5.35547 56.959 5.58984C57.4603 5.81771 57.8835 6.15299 58.2285 6.5957C58.5801 7.0319 58.8568 7.55924 59.0586 8.17773C59.2604 8.79622 59.4004 9.49609 59.4785 10.2773V11.1758C59.4069 11.9505 59.2669 12.6471 59.0586 13.2656C58.8568 13.8841 58.5801 14.4115 58.2285 14.8477C57.8835 15.2839 57.4603 15.6191 56.959 15.8535C56.4577 16.0814 55.8717 16.1953 55.2012 16.1953C54.5827 16.1953 54.0163 16.0618 53.502 15.7949C52.9941 15.528 52.5547 15.1536 52.1836 14.6719C51.819 14.1901 51.5358 13.6237 51.334 12.9727C51.1387 12.3151 51.041 11.6022 51.041 10.834ZM52.8574 10.6289V10.834C52.8574 11.3613 52.9095 11.8561 53.0137 12.3184C53.1243 12.7806 53.2936 13.1875 53.5215 13.5391C53.7493 13.8906 54.0391 14.1673 54.3906 14.3691C54.7422 14.5645 55.1621 14.6621 55.6504 14.6621C56.2493 14.6621 56.7409 14.5352 57.125 14.2812C57.5156 14.0273 57.8281 13.6921 58.0625 13.2754C58.2969 12.8587 58.4792 12.4062 58.6094 11.918V9.56445C58.5312 9.20638 58.4173 8.86133 58.2676 8.5293C58.1243 8.19076 57.9355 7.89128 57.7012 7.63086C57.4733 7.36393 57.1901 7.15234 56.8516 6.99609C56.5195 6.83984 56.1257 6.76172 55.6699 6.76172C55.1751 6.76172 54.7487 6.86589 54.3906 7.07422C54.0391 7.27604 53.7493 7.55599 53.5215 7.91406C53.2936 8.26562 53.1243 8.67578 53.0137 9.14453C52.9095 9.60677 52.8574 10.1016 52.8574 10.6289ZM69.0098 14.1934V8.75391C69.0098 8.33724 68.9251 7.97591 68.7559 7.66992C68.5931 7.35742 68.3457 7.11654 68.0137 6.94727C67.6816 6.77799 67.2715 6.69336 66.7832 6.69336C66.3275 6.69336 65.9271 6.77148 65.582 6.92773C65.2435 7.08398 64.9766 7.28906 64.7812 7.54297C64.5924 7.79688 64.498 8.07031 64.498 8.36328H62.6914C62.6914 7.98568 62.7891 7.61133 62.9844 7.24023C63.1797 6.86914 63.4596 6.53385 63.8242 6.23438C64.1953 5.92839 64.638 5.6875 65.1523 5.51172C65.6732 5.32943 66.2526 5.23828 66.8906 5.23828C67.6589 5.23828 68.3359 5.36849 68.9219 5.62891C69.5143 5.88932 69.9766 6.2832 70.3086 6.81055C70.6471 7.33138 70.8164 7.98568 70.8164 8.77344V13.6953C70.8164 14.0469 70.8457 14.4212 70.9043 14.8184C70.9694 15.2155 71.0638 15.5573 71.1875 15.8438V16H69.3027C69.2116 15.7917 69.14 15.515 69.0879 15.1699C69.0358 14.8184 69.0098 14.4928 69.0098 14.1934ZM69.3223 9.59375L69.3418 10.8633H67.5156C67.0013 10.8633 66.5423 10.9056 66.1387 10.9902C65.735 11.0684 65.3965 11.1888 65.123 11.3516C64.8496 11.5143 64.6413 11.7194 64.498 11.9668C64.3548 12.2077 64.2832 12.4909 64.2832 12.8164C64.2832 13.1484 64.3581 13.4512 64.5078 13.7246C64.6576 13.998 64.8822 14.2161 65.1816 14.3789C65.4876 14.5352 65.862 14.6133 66.3047 14.6133C66.8581 14.6133 67.3464 14.4961 67.7695 14.2617C68.1927 14.0273 68.528 13.7409 68.7754 13.4023C69.0293 13.0638 69.166 12.735 69.1855 12.416L69.957 13.2852C69.9115 13.5586 69.7878 13.8613 69.5859 14.1934C69.3841 14.5254 69.1139 14.8444 68.7754 15.1504C68.4434 15.4499 68.0462 15.7005 67.584 15.9023C67.1283 16.0977 66.6139 16.1953 66.041 16.1953C65.3249 16.1953 64.6966 16.0553 64.1562 15.7754C63.6224 15.4954 63.2057 15.1211 62.9062 14.6523C62.6133 14.1771 62.4668 13.6465 62.4668 13.0605C62.4668 12.4941 62.5775 11.9961 62.7988 11.5664C63.0202 11.1302 63.3392 10.7689 63.7559 10.4824C64.1725 10.1895 64.6738 9.9681 65.2598 9.81836C65.8457 9.66862 66.5 9.59375 67.2227 9.59375H69.3223ZM78.082 5.43359V6.82031H72.3691V5.43359H78.082ZM74.3027 2.86523H76.1094V13.3828C76.1094 13.7409 76.1647 14.0111 76.2754 14.1934C76.3861 14.3757 76.5293 14.4961 76.7051 14.5547C76.8809 14.6133 77.0697 14.6426 77.2715 14.6426C77.4212 14.6426 77.5775 14.6296 77.7402 14.6035C77.9095 14.571 78.0365 14.5449 78.1211 14.5254L78.1309 16C77.9876 16.0456 77.7988 16.0879 77.5645 16.127C77.3366 16.1725 77.0599 16.1953 76.7344 16.1953C76.2917 16.1953 75.8848 16.1074 75.5137 15.9316C75.1426 15.7559 74.8464 15.4629 74.625 15.0527C74.4102 14.6361 74.3027 14.0762 74.3027 13.373V2.86523ZM84.5859 16.1953C83.8503 16.1953 83.1829 16.0716 82.584 15.8242C81.9915 15.5703 81.4805 15.2155 81.0508 14.7598C80.6276 14.304 80.3021 13.7637 80.0742 13.1387C79.8464 12.5137 79.7324 11.8301 79.7324 11.0879V10.6777C79.7324 9.81836 79.8594 9.05339 80.1133 8.38281C80.3672 7.70573 80.7122 7.13281 81.1484 6.66406C81.5846 6.19531 82.0794 5.84049 82.6328 5.59961C83.1862 5.35872 83.7591 5.23828 84.3516 5.23828C85.1068 5.23828 85.7578 5.36849 86.3047 5.62891C86.8581 5.88932 87.3105 6.25391 87.6621 6.72266C88.0137 7.1849 88.2741 7.73177 88.4434 8.36328C88.6126 8.98828 88.6973 9.67188 88.6973 10.4141V11.2246H80.8066V9.75H86.8906V9.61328C86.8646 9.14453 86.7669 8.6888 86.5977 8.24609C86.4349 7.80339 86.1745 7.4388 85.8164 7.15234C85.4583 6.86589 84.9701 6.72266 84.3516 6.72266C83.9414 6.72266 83.5638 6.81055 83.2188 6.98633C82.8737 7.1556 82.5775 7.40951 82.3301 7.74805C82.0827 8.08659 81.8906 8.5 81.7539 8.98828C81.6172 9.47656 81.5488 10.0397 81.5488 10.6777V11.0879C81.5488 11.5892 81.6172 12.0612 81.7539 12.5039C81.8971 12.9401 82.1022 13.3242 82.3691 13.6562C82.6426 13.9883 82.9714 14.2487 83.3555 14.4375C83.7461 14.6263 84.1888 14.7207 84.6836 14.7207C85.3216 14.7207 85.862 14.5905 86.3047 14.3301C86.7474 14.0697 87.1348 13.7214 87.4668 13.2852L88.5605 14.1543C88.3327 14.4993 88.043 14.8281 87.6914 15.1406C87.3398 15.4531 86.9069 15.707 86.3926 15.9023C85.8848 16.0977 85.2826 16.1953 84.5859 16.1953ZM96.959 13.1973C96.959 12.9368 96.9004 12.696 96.7832 12.4746C96.6725 12.2467 96.4414 12.0417 96.0898 11.8594C95.7448 11.6706 95.224 11.5078 94.5273 11.3711C93.9414 11.2474 93.4108 11.1009 92.9355 10.9316C92.4668 10.7624 92.0664 10.5573 91.7344 10.3164C91.4089 10.0755 91.1582 9.79232 90.9824 9.4668C90.8066 9.14128 90.7188 8.76042 90.7188 8.32422C90.7188 7.90755 90.8099 7.51367 90.9922 7.14258C91.181 6.77148 91.4447 6.44271 91.7832 6.15625C92.1283 5.86979 92.5417 5.64518 93.0234 5.48242C93.5052 5.31966 94.0423 5.23828 94.6348 5.23828C95.4811 5.23828 96.2038 5.38802 96.8027 5.6875C97.4017 5.98698 97.8607 6.38737 98.1797 6.88867C98.4987 7.38346 98.6582 7.93359 98.6582 8.53906H96.8516C96.8516 8.24609 96.7637 7.96289 96.5879 7.68945C96.4186 7.40951 96.168 7.17839 95.8359 6.99609C95.5104 6.8138 95.11 6.72266 94.6348 6.72266C94.1335 6.72266 93.7266 6.80078 93.4141 6.95703C93.1081 7.10677 92.8835 7.29883 92.7402 7.5332C92.6035 7.76758 92.5352 8.01497 92.5352 8.27539C92.5352 8.4707 92.5677 8.64648 92.6328 8.80273C92.7044 8.95247 92.8281 9.09245 93.0039 9.22266C93.1797 9.34635 93.4271 9.46354 93.7461 9.57422C94.0651 9.6849 94.472 9.79557 94.9668 9.90625C95.8327 10.1016 96.5456 10.3359 97.1055 10.6094C97.6654 10.8828 98.082 11.2181 98.3555 11.6152C98.6289 12.0124 98.7656 12.4941 98.7656 13.0605C98.7656 13.5228 98.668 13.946 98.4727 14.3301C98.2839 14.7142 98.0072 15.0462 97.6426 15.3262C97.2845 15.5996 96.8548 15.8145 96.3535 15.9707C95.8587 16.1204 95.3021 16.1953 94.6836 16.1953C93.7526 16.1953 92.9648 16.0293 92.3203 15.6973C91.6758 15.3652 91.1875 14.9355 90.8555 14.4082C90.5234 13.8809 90.3574 13.3242 90.3574 12.7383H92.1738C92.1999 13.2331 92.3431 13.627 92.6035 13.9199C92.8639 14.2064 93.1829 14.4115 93.5605 14.5352C93.9382 14.6523 94.3125 14.7109 94.6836 14.7109C95.1784 14.7109 95.5918 14.6458 95.9238 14.5156C96.2624 14.3854 96.5195 14.2064 96.6953 13.9785C96.8711 13.7507 96.959 13.4902 96.959 13.1973ZM108.795 16H106.988V4.32031C106.988 3.55859 107.125 2.91732 107.398 2.39648C107.678 1.86914 108.079 1.47201 108.6 1.20508C109.12 0.931641 109.739 0.794922 110.455 0.794922C110.663 0.794922 110.872 0.807943 111.08 0.833984C111.295 0.860026 111.503 0.899089 111.705 0.951172L111.607 2.42578C111.471 2.39323 111.314 2.37044 111.139 2.35742C110.969 2.3444 110.8 2.33789 110.631 2.33789C110.247 2.33789 109.915 2.41602 109.635 2.57227C109.361 2.72201 109.153 2.94336 109.01 3.23633C108.867 3.5293 108.795 3.89062 108.795 4.32031V16ZM111.041 5.43359V6.82031H105.318V5.43359H111.041ZM112.574 10.834V10.6094C112.574 9.84766 112.685 9.14128 112.906 8.49023C113.128 7.83268 113.447 7.26302 113.863 6.78125C114.28 6.29297 114.785 5.91536 115.377 5.64844C115.969 5.375 116.633 5.23828 117.369 5.23828C118.111 5.23828 118.779 5.375 119.371 5.64844C119.97 5.91536 120.478 6.29297 120.895 6.78125C121.318 7.26302 121.64 7.83268 121.861 8.49023C122.083 9.14128 122.193 9.84766 122.193 10.6094V10.834C122.193 11.5957 122.083 12.3021 121.861 12.9531C121.64 13.6042 121.318 14.1738 120.895 14.6621C120.478 15.1439 119.973 15.5215 119.381 15.7949C118.795 16.0618 118.131 16.1953 117.389 16.1953C116.646 16.1953 115.979 16.0618 115.387 15.7949C114.794 15.5215 114.286 15.1439 113.863 14.6621C113.447 14.1738 113.128 13.6042 112.906 12.9531C112.685 12.3021 112.574 11.5957 112.574 10.834ZM114.381 10.6094V10.834C114.381 11.3613 114.443 11.8594 114.566 12.3281C114.69 12.7904 114.876 13.2005 115.123 13.5586C115.377 13.9167 115.693 14.1999 116.07 14.4082C116.448 14.61 116.887 14.7109 117.389 14.7109C117.883 14.7109 118.316 14.61 118.688 14.4082C119.065 14.1999 119.378 13.9167 119.625 13.5586C119.872 13.2005 120.058 12.7904 120.182 12.3281C120.312 11.8594 120.377 11.3613 120.377 10.834V10.6094C120.377 10.0885 120.312 9.59701 120.182 9.13477C120.058 8.66602 119.869 8.2526 119.615 7.89453C119.368 7.52995 119.055 7.24349 118.678 7.03516C118.307 6.82682 117.87 6.72266 117.369 6.72266C116.874 6.72266 116.438 6.82682 116.061 7.03516C115.689 7.24349 115.377 7.52995 115.123 7.89453C114.876 8.2526 114.69 8.66602 114.566 9.13477C114.443 9.59701 114.381 10.0885 114.381 10.6094ZM126.266 7.09375V16H124.459V5.43359H126.217L126.266 7.09375ZM129.566 5.375L129.557 7.05469C129.407 7.02214 129.264 7.0026 129.127 6.99609C128.997 6.98307 128.847 6.97656 128.678 6.97656C128.261 6.97656 127.893 7.04167 127.574 7.17188C127.255 7.30208 126.985 7.48438 126.764 7.71875C126.542 7.95312 126.367 8.23307 126.236 8.55859C126.113 8.8776 126.031 9.22917 125.992 9.61328L125.484 9.90625C125.484 9.26823 125.546 8.66927 125.67 8.10938C125.8 7.54948 125.999 7.05469 126.266 6.625C126.533 6.1888 126.871 5.85026 127.281 5.60938C127.698 5.36198 128.193 5.23828 128.766 5.23828C128.896 5.23828 129.046 5.25456 129.215 5.28711C129.384 5.31315 129.501 5.34245 129.566 5.375ZM138.492 1.78125V16H136.607V1.78125H138.492ZM146.881 1.78125V16H145.025V1.78125H146.881ZM151.451 1.78125V3.32422H140.465V1.78125H151.451Z" fill="black"/>
</svg>
