<svg width="251" height="100" viewBox="0 0 251 100" fill="none" xmlns="http://www.w3.org/2000/svg">
<path d="M3.52 55.64V25.56L10.88 18.2H32.768L40 25.432V32.28H31.296V28.632L28.288 25.624H15.488L12.224 28.888V52.312L15.488 55.576H28.288L31.296 52.568V48.92H40V55.768L32.768 63H10.88L3.52 55.64ZM45.7775 31.128H53.5855V36.44L58.8975 31.128H69.2015L76.3055 38.232V63H67.8575V40.536L65.6815 38.296H60.3055L54.2255 44.44V63H45.7775V31.128ZM83.6525 31.128H91.4605V36.44L96.7725 31.128H107.077L114.181 38.232V63H105.733V40.536L103.557 38.296H98.1805L92.1005 44.44V63H83.6525V31.128ZM120.888 56.472V37.784L127.48 31.128H145.464L152.12 37.784V49.88H129.336V53.976L131.384 56.088H141.816L143.736 54.104V52.44H152.056V56.6L145.72 63H127.352L120.888 56.472ZM143.672 43.992V40.28L141.496 38.04H131.512L129.336 40.28V43.992H143.672ZM158.2 56.472V37.656L164.664 31.128H182.2L188.792 37.784V43.672H180.344V40.536L178.104 38.296H168.888L166.648 40.536V53.592L168.888 55.832H178.104L180.344 53.592V50.456H188.792V56.344L182.2 63H164.664L158.2 56.472ZM197.408 56.472V38.232H191.648V31.128H197.536V20.76H205.856V31.128H215.584V38.296H205.856V53.72L208.032 55.832H215.584V63H204L197.408 56.472Z" fill="black"/>
<path d="M23.2344 81.4785H25.1094C25.0117 82.377 24.7546 83.181 24.3379 83.8906C23.9212 84.6003 23.332 85.1634 22.5703 85.5801C21.8086 85.9902 20.8581 86.1953 19.7188 86.1953C18.8854 86.1953 18.127 86.0391 17.4434 85.7266C16.7663 85.4141 16.1836 84.9714 15.6953 84.3984C15.207 83.819 14.8294 83.1257 14.5625 82.3184C14.3021 81.5046 14.1719 80.5996 14.1719 79.6035V78.1875C14.1719 77.1914 14.3021 76.2897 14.5625 75.4824C14.8294 74.6686 15.2103 73.972 15.7051 73.3926C16.2064 72.8132 16.8086 72.3672 17.5117 72.0547C18.2148 71.7422 19.0059 71.5859 19.8848 71.5859C20.959 71.5859 21.8672 71.7878 22.6094 72.1914C23.3516 72.5951 23.9277 73.1549 24.3379 73.8711C24.7546 74.5807 25.0117 75.4043 25.1094 76.3418H23.2344C23.1432 75.6777 22.974 75.1081 22.7266 74.6328C22.4792 74.151 22.1276 73.7799 21.6719 73.5195C21.2161 73.2591 20.6204 73.1289 19.8848 73.1289C19.2533 73.1289 18.6966 73.2493 18.2148 73.4902C17.7396 73.7311 17.3392 74.0729 17.0137 74.5156C16.6947 74.9583 16.4538 75.4889 16.291 76.1074C16.1283 76.7259 16.0469 77.4128 16.0469 78.168V79.6035C16.0469 80.3001 16.1185 80.9544 16.2617 81.5664C16.4115 82.1784 16.6361 82.7155 16.9355 83.1777C17.235 83.64 17.6159 84.0046 18.0781 84.2715C18.5404 84.5319 19.0872 84.6621 19.7188 84.6621C20.5195 84.6621 21.1576 84.5352 21.6328 84.2812C22.1081 84.0273 22.4661 83.6628 22.707 83.1875C22.9544 82.7122 23.1302 82.1426 23.2344 81.4785ZM33.6348 84.1934V78.7539C33.6348 78.3372 33.5501 77.9759 33.3809 77.6699C33.2181 77.3574 32.9707 77.1165 32.6387 76.9473C32.3066 76.778 31.8965 76.6934 31.4082 76.6934C30.9525 76.6934 30.5521 76.7715 30.207 76.9277C29.8685 77.084 29.6016 77.2891 29.4062 77.543C29.2174 77.7969 29.123 78.0703 29.123 78.3633H27.3164C27.3164 77.9857 27.4141 77.6113 27.6094 77.2402C27.8047 76.8691 28.0846 76.5339 28.4492 76.2344C28.8203 75.9284 29.263 75.6875 29.7773 75.5117C30.2982 75.3294 30.8776 75.2383 31.5156 75.2383C32.2839 75.2383 32.9609 75.3685 33.5469 75.6289C34.1393 75.8893 34.6016 76.2832 34.9336 76.8105C35.2721 77.3314 35.4414 77.9857 35.4414 78.7734V83.6953C35.4414 84.0469 35.4707 84.4212 35.5293 84.8184C35.5944 85.2155 35.6888 85.5573 35.8125 85.8438V86H33.9277C33.8366 85.7917 33.765 85.515 33.7129 85.1699C33.6608 84.8184 33.6348 84.4928 33.6348 84.1934ZM33.9473 79.5938L33.9668 80.8633H32.1406C31.6263 80.8633 31.1673 80.9056 30.7637 80.9902C30.36 81.0684 30.0215 81.1888 29.748 81.3516C29.4746 81.5143 29.2663 81.7194 29.123 81.9668C28.9798 82.2077 28.9082 82.4909 28.9082 82.8164C28.9082 83.1484 28.9831 83.4512 29.1328 83.7246C29.2826 83.998 29.5072 84.2161 29.8066 84.3789C30.1126 84.5352 30.487 84.6133 30.9297 84.6133C31.4831 84.6133 31.9714 84.4961 32.3945 84.2617C32.8177 84.0273 33.153 83.7409 33.4004 83.4023C33.6543 83.0638 33.791 82.735 33.8105 82.416L34.582 83.2852C34.5365 83.5586 34.4128 83.8613 34.2109 84.1934C34.0091 84.5254 33.7389 84.8444 33.4004 85.1504C33.0684 85.4499 32.6712 85.7005 32.209 85.9023C31.7533 86.0977 31.2389 86.1953 30.666 86.1953C29.9499 86.1953 29.3216 86.0553 28.7812 85.7754C28.2474 85.4954 27.8307 85.1211 27.5312 84.6523C27.2383 84.1771 27.0918 83.6465 27.0918 83.0605C27.0918 82.4941 27.2025 81.9961 27.4238 81.5664C27.6452 81.1302 27.9642 80.7689 28.3809 80.4824C28.7975 80.1895 29.2988 79.9681 29.8848 79.8184C30.4707 79.6686 31.125 79.5938 31.8477 79.5938H33.9473ZM40.0898 77.6895V86H38.2832V75.4336H39.9922L40.0898 77.6895ZM39.6602 80.3164L38.9082 80.2871C38.9147 79.5645 39.0221 78.8971 39.2305 78.2852C39.4388 77.6667 39.7318 77.1296 40.1094 76.6738C40.487 76.2181 40.9362 75.8665 41.457 75.6191C41.9844 75.3652 42.5671 75.2383 43.2051 75.2383C43.7259 75.2383 44.1947 75.3099 44.6113 75.4531C45.028 75.5898 45.3828 75.8112 45.6758 76.1172C45.9753 76.4232 46.2031 76.8203 46.3594 77.3086C46.5156 77.7904 46.5938 78.3796 46.5938 79.0762V86H44.7773V79.0566C44.7773 78.5033 44.696 78.0605 44.5332 77.7285C44.3704 77.39 44.1328 77.1458 43.8203 76.9961C43.5078 76.8398 43.1237 76.7617 42.668 76.7617C42.2188 76.7617 41.8086 76.8561 41.4375 77.0449C41.0729 77.2337 40.7572 77.4941 40.4902 77.8262C40.2298 78.1582 40.0247 78.5391 39.875 78.9688C39.7318 79.3919 39.6602 79.8411 39.6602 80.3164ZM55.998 83.9492V71H57.8145V86H56.1543L55.998 83.9492ZM48.8887 80.834V80.6289C48.8887 79.8216 48.9863 79.0892 49.1816 78.4316C49.3835 77.7676 49.6667 77.1979 50.0312 76.7227C50.4023 76.2474 50.8418 75.8828 51.3496 75.6289C51.8639 75.3685 52.4368 75.2383 53.0684 75.2383C53.7324 75.2383 54.3118 75.3555 54.8066 75.5898C55.3079 75.8177 55.7311 76.153 56.0762 76.5957C56.4277 77.0319 56.7044 77.5592 56.9062 78.1777C57.1081 78.7962 57.248 79.4961 57.3262 80.2773V81.1758C57.2546 81.9505 57.1146 82.6471 56.9062 83.2656C56.7044 83.8841 56.4277 84.4115 56.0762 84.8477C55.7311 85.2839 55.3079 85.6191 54.8066 85.8535C54.3053 86.0814 53.7194 86.1953 53.0488 86.1953C52.4303 86.1953 51.8639 86.0618 51.3496 85.7949C50.8418 85.528 50.4023 85.1536 50.0312 84.6719C49.6667 84.1901 49.3835 83.6237 49.1816 82.9727C48.9863 82.3151 48.8887 81.6022 48.8887 80.834ZM50.7051 80.6289V80.834C50.7051 81.3613 50.7572 81.8561 50.8613 82.3184C50.972 82.7806 51.1413 83.1875 51.3691 83.5391C51.597 83.8906 51.8867 84.1673 52.2383 84.3691C52.5898 84.5645 53.0098 84.6621 53.498 84.6621C54.097 84.6621 54.5885 84.5352 54.9727 84.2812C55.3633 84.0273 55.6758 83.6921 55.9102 83.2754C56.1445 82.8587 56.3268 82.4062 56.457 81.918V79.5645C56.3789 79.2064 56.265 78.8613 56.1152 78.5293C55.972 78.1908 55.7832 77.8913 55.5488 77.6309C55.321 77.3639 55.0378 77.1523 54.6992 76.9961C54.3672 76.8398 53.9733 76.7617 53.5176 76.7617C53.0228 76.7617 52.5964 76.8659 52.2383 77.0742C51.8867 77.276 51.597 77.556 51.3691 77.9141C51.1413 78.2656 50.972 78.6758 50.8613 79.1445C50.7572 79.6068 50.7051 80.1016 50.7051 80.6289ZM62.5898 75.4336V86H60.7734V75.4336H62.5898ZM60.6367 72.6309C60.6367 72.3379 60.7246 72.0905 60.9004 71.8887C61.0827 71.6868 61.3496 71.5859 61.7012 71.5859C62.0462 71.5859 62.3099 71.6868 62.4922 71.8887C62.681 72.0905 62.7754 72.3379 62.7754 72.6309C62.7754 72.9108 62.681 73.1517 62.4922 73.3535C62.3099 73.5488 62.0462 73.6465 61.7012 73.6465C61.3496 73.6465 61.0827 73.5488 60.9004 73.3535C60.7246 73.1517 60.6367 72.9108 60.6367 72.6309ZM72.1504 83.9492V71H73.9668V86H72.3066L72.1504 83.9492ZM65.041 80.834V80.6289C65.041 79.8216 65.1387 79.0892 65.334 78.4316C65.5358 77.7676 65.819 77.1979 66.1836 76.7227C66.5547 76.2474 66.9941 75.8828 67.502 75.6289C68.0163 75.3685 68.5892 75.2383 69.2207 75.2383C69.8848 75.2383 70.4642 75.3555 70.959 75.5898C71.4603 75.8177 71.8835 76.153 72.2285 76.5957C72.5801 77.0319 72.8568 77.5592 73.0586 78.1777C73.2604 78.7962 73.4004 79.4961 73.4785 80.2773V81.1758C73.4069 81.9505 73.2669 82.6471 73.0586 83.2656C72.8568 83.8841 72.5801 84.4115 72.2285 84.8477C71.8835 85.2839 71.4603 85.6191 70.959 85.8535C70.4577 86.0814 69.8717 86.1953 69.2012 86.1953C68.5827 86.1953 68.0163 86.0618 67.502 85.7949C66.9941 85.528 66.5547 85.1536 66.1836 84.6719C65.819 84.1901 65.5358 83.6237 65.334 82.9727C65.1387 82.3151 65.041 81.6022 65.041 80.834ZM66.8574 80.6289V80.834C66.8574 81.3613 66.9095 81.8561 67.0137 82.3184C67.1243 82.7806 67.2936 83.1875 67.5215 83.5391C67.7493 83.8906 68.0391 84.1673 68.3906 84.3691C68.7422 84.5645 69.1621 84.6621 69.6504 84.6621C70.2493 84.6621 70.7409 84.5352 71.125 84.2812C71.5156 84.0273 71.8281 83.6921 72.0625 83.2754C72.2969 82.8587 72.4792 82.4062 72.6094 81.918V79.5645C72.5312 79.2064 72.4173 78.8613 72.2676 78.5293C72.1243 78.1908 71.9355 77.8913 71.7012 77.6309C71.4733 77.3639 71.1901 77.1523 70.8516 76.9961C70.5195 76.8398 70.1257 76.7617 69.6699 76.7617C69.1751 76.7617 68.7487 76.8659 68.3906 77.0742C68.0391 77.276 67.7493 77.556 67.5215 77.9141C67.2936 78.2656 67.1243 78.6758 67.0137 79.1445C66.9095 79.6068 66.8574 80.1016 66.8574 80.6289ZM83.0098 84.1934V78.7539C83.0098 78.3372 82.9251 77.9759 82.7559 77.6699C82.5931 77.3574 82.3457 77.1165 82.0137 76.9473C81.6816 76.778 81.2715 76.6934 80.7832 76.6934C80.3275 76.6934 79.9271 76.7715 79.582 76.9277C79.2435 77.084 78.9766 77.2891 78.7812 77.543C78.5924 77.7969 78.498 78.0703 78.498 78.3633H76.6914C76.6914 77.9857 76.7891 77.6113 76.9844 77.2402C77.1797 76.8691 77.4596 76.5339 77.8242 76.2344C78.1953 75.9284 78.638 75.6875 79.1523 75.5117C79.6732 75.3294 80.2526 75.2383 80.8906 75.2383C81.6589 75.2383 82.3359 75.3685 82.9219 75.6289C83.5143 75.8893 83.9766 76.2832 84.3086 76.8105C84.6471 77.3314 84.8164 77.9857 84.8164 78.7734V83.6953C84.8164 84.0469 84.8457 84.4212 84.9043 84.8184C84.9694 85.2155 85.0638 85.5573 85.1875 85.8438V86H83.3027C83.2116 85.7917 83.14 85.515 83.0879 85.1699C83.0358 84.8184 83.0098 84.4928 83.0098 84.1934ZM83.3223 79.5938L83.3418 80.8633H81.5156C81.0013 80.8633 80.5423 80.9056 80.1387 80.9902C79.735 81.0684 79.3965 81.1888 79.123 81.3516C78.8496 81.5143 78.6413 81.7194 78.498 81.9668C78.3548 82.2077 78.2832 82.4909 78.2832 82.8164C78.2832 83.1484 78.3581 83.4512 78.5078 83.7246C78.6576 83.998 78.8822 84.2161 79.1816 84.3789C79.4876 84.5352 79.862 84.6133 80.3047 84.6133C80.8581 84.6133 81.3464 84.4961 81.7695 84.2617C82.1927 84.0273 82.528 83.7409 82.7754 83.4023C83.0293 83.0638 83.166 82.735 83.1855 82.416L83.957 83.2852C83.9115 83.5586 83.7878 83.8613 83.5859 84.1934C83.3841 84.5254 83.1139 84.8444 82.7754 85.1504C82.4434 85.4499 82.0462 85.7005 81.584 85.9023C81.1283 86.0977 80.6139 86.1953 80.041 86.1953C79.3249 86.1953 78.6966 86.0553 78.1562 85.7754C77.6224 85.4954 77.2057 85.1211 76.9062 84.6523C76.6133 84.1771 76.4668 83.6465 76.4668 83.0605C76.4668 82.4941 76.5775 81.9961 76.7988 81.5664C77.0202 81.1302 77.3392 80.7689 77.7559 80.4824C78.1725 80.1895 78.6738 79.9681 79.2598 79.8184C79.8457 79.6686 80.5 79.5938 81.2227 79.5938H83.3223ZM92.082 75.4336V76.8203H86.3691V75.4336H92.082ZM88.3027 72.8652H90.1094V83.3828C90.1094 83.7409 90.1647 84.0111 90.2754 84.1934C90.3861 84.3757 90.5293 84.4961 90.7051 84.5547C90.8809 84.6133 91.0697 84.6426 91.2715 84.6426C91.4212 84.6426 91.5775 84.6296 91.7402 84.6035C91.9095 84.571 92.0365 84.5449 92.1211 84.5254L92.1309 86C91.9876 86.0456 91.7988 86.0879 91.5645 86.127C91.3366 86.1725 91.0599 86.1953 90.7344 86.1953C90.2917 86.1953 89.8848 86.1074 89.5137 85.9316C89.1426 85.7559 88.8464 85.4629 88.625 85.0527C88.4102 84.6361 88.3027 84.0762 88.3027 83.373V72.8652ZM98.5859 86.1953C97.8503 86.1953 97.1829 86.0716 96.584 85.8242C95.9915 85.5703 95.4805 85.2155 95.0508 84.7598C94.6276 84.304 94.3021 83.7637 94.0742 83.1387C93.8464 82.5137 93.7324 81.8301 93.7324 81.0879V80.6777C93.7324 79.8184 93.8594 79.0534 94.1133 78.3828C94.3672 77.7057 94.7122 77.1328 95.1484 76.6641C95.5846 76.1953 96.0794 75.8405 96.6328 75.5996C97.1862 75.3587 97.7591 75.2383 98.3516 75.2383C99.1068 75.2383 99.7578 75.3685 100.305 75.6289C100.858 75.8893 101.311 76.2539 101.662 76.7227C102.014 77.1849 102.274 77.7318 102.443 78.3633C102.613 78.9883 102.697 79.6719 102.697 80.4141V81.2246H94.8066V79.75H100.891V79.6133C100.865 79.1445 100.767 78.6888 100.598 78.2461C100.435 77.8034 100.174 77.4388 99.8164 77.1523C99.4583 76.8659 98.9701 76.7227 98.3516 76.7227C97.9414 76.7227 97.5638 76.8105 97.2188 76.9863C96.8737 77.1556 96.5775 77.4095 96.3301 77.748C96.0827 78.0866 95.8906 78.5 95.7539 78.9883C95.6172 79.4766 95.5488 80.0397 95.5488 80.6777V81.0879C95.5488 81.5892 95.6172 82.0612 95.7539 82.5039C95.8971 82.9401 96.1022 83.3242 96.3691 83.6562C96.6426 83.9883 96.9714 84.2487 97.3555 84.4375C97.7461 84.6263 98.1888 84.7207 98.6836 84.7207C99.3216 84.7207 99.862 84.5905 100.305 84.3301C100.747 84.0697 101.135 83.7214 101.467 83.2852L102.561 84.1543C102.333 84.4993 102.043 84.8281 101.691 85.1406C101.34 85.4531 100.907 85.707 100.393 85.9023C99.8848 86.0977 99.2826 86.1953 98.5859 86.1953ZM110.959 83.1973C110.959 82.9368 110.9 82.696 110.783 82.4746C110.673 82.2467 110.441 82.0417 110.09 81.8594C109.745 81.6706 109.224 81.5078 108.527 81.3711C107.941 81.2474 107.411 81.1009 106.936 80.9316C106.467 80.7624 106.066 80.5573 105.734 80.3164C105.409 80.0755 105.158 79.7923 104.982 79.4668C104.807 79.1413 104.719 78.7604 104.719 78.3242C104.719 77.9076 104.81 77.5137 104.992 77.1426C105.181 76.7715 105.445 76.4427 105.783 76.1562C106.128 75.8698 106.542 75.6452 107.023 75.4824C107.505 75.3197 108.042 75.2383 108.635 75.2383C109.481 75.2383 110.204 75.388 110.803 75.6875C111.402 75.987 111.861 76.3874 112.18 76.8887C112.499 77.3835 112.658 77.9336 112.658 78.5391H110.852C110.852 78.2461 110.764 77.9629 110.588 77.6895C110.419 77.4095 110.168 77.1784 109.836 76.9961C109.51 76.8138 109.11 76.7227 108.635 76.7227C108.133 76.7227 107.727 76.8008 107.414 76.957C107.108 77.1068 106.883 77.2988 106.74 77.5332C106.604 77.7676 106.535 78.015 106.535 78.2754C106.535 78.4707 106.568 78.6465 106.633 78.8027C106.704 78.9525 106.828 79.0924 107.004 79.2227C107.18 79.3464 107.427 79.4635 107.746 79.5742C108.065 79.6849 108.472 79.7956 108.967 79.9062C109.833 80.1016 110.546 80.3359 111.105 80.6094C111.665 80.8828 112.082 81.2181 112.355 81.6152C112.629 82.0124 112.766 82.4941 112.766 83.0605C112.766 83.5228 112.668 83.946 112.473 84.3301C112.284 84.7142 112.007 85.0462 111.643 85.3262C111.285 85.5996 110.855 85.8145 110.354 85.9707C109.859 86.1204 109.302 86.1953 108.684 86.1953C107.753 86.1953 106.965 86.0293 106.32 85.6973C105.676 85.3652 105.188 84.9355 104.855 84.4082C104.523 83.8809 104.357 83.3242 104.357 82.7383H106.174C106.2 83.2331 106.343 83.627 106.604 83.9199C106.864 84.2064 107.183 84.4115 107.561 84.5352C107.938 84.6523 108.312 84.7109 108.684 84.7109C109.178 84.7109 109.592 84.6458 109.924 84.5156C110.262 84.3854 110.52 84.2064 110.695 83.9785C110.871 83.7507 110.959 83.4902 110.959 83.1973ZM122.795 86H120.988V74.3203C120.988 73.5586 121.125 72.9173 121.398 72.3965C121.678 71.8691 122.079 71.472 122.6 71.2051C123.12 70.9316 123.739 70.7949 124.455 70.7949C124.663 70.7949 124.872 70.8079 125.08 70.834C125.295 70.86 125.503 70.8991 125.705 70.9512L125.607 72.4258C125.471 72.3932 125.314 72.3704 125.139 72.3574C124.969 72.3444 124.8 72.3379 124.631 72.3379C124.247 72.3379 123.915 72.416 123.635 72.5723C123.361 72.722 123.153 72.9434 123.01 73.2363C122.867 73.5293 122.795 73.8906 122.795 74.3203V86ZM125.041 75.4336V76.8203H119.318V75.4336H125.041ZM126.574 80.834V80.6094C126.574 79.8477 126.685 79.1413 126.906 78.4902C127.128 77.8327 127.447 77.263 127.863 76.7812C128.28 76.293 128.785 75.9154 129.377 75.6484C129.969 75.375 130.633 75.2383 131.369 75.2383C132.111 75.2383 132.779 75.375 133.371 75.6484C133.97 75.9154 134.478 76.293 134.895 76.7812C135.318 77.263 135.64 77.8327 135.861 78.4902C136.083 79.1413 136.193 79.8477 136.193 80.6094V80.834C136.193 81.5957 136.083 82.3021 135.861 82.9531C135.64 83.6042 135.318 84.1738 134.895 84.6621C134.478 85.1439 133.973 85.5215 133.381 85.7949C132.795 86.0618 132.131 86.1953 131.389 86.1953C130.646 86.1953 129.979 86.0618 129.387 85.7949C128.794 85.5215 128.286 85.1439 127.863 84.6621C127.447 84.1738 127.128 83.6042 126.906 82.9531C126.685 82.3021 126.574 81.5957 126.574 80.834ZM128.381 80.6094V80.834C128.381 81.3613 128.443 81.8594 128.566 82.3281C128.69 82.7904 128.876 83.2005 129.123 83.5586C129.377 83.9167 129.693 84.1999 130.07 84.4082C130.448 84.61 130.887 84.7109 131.389 84.7109C131.883 84.7109 132.316 84.61 132.688 84.4082C133.065 84.1999 133.378 83.9167 133.625 83.5586C133.872 83.2005 134.058 82.7904 134.182 82.3281C134.312 81.8594 134.377 81.3613 134.377 80.834V80.6094C134.377 80.0885 134.312 79.597 134.182 79.1348C134.058 78.666 133.869 78.2526 133.615 77.8945C133.368 77.5299 133.055 77.2435 132.678 77.0352C132.307 76.8268 131.87 76.7227 131.369 76.7227C130.874 76.7227 130.438 76.8268 130.061 77.0352C129.689 77.2435 129.377 77.5299 129.123 77.8945C128.876 78.2526 128.69 78.666 128.566 79.1348C128.443 79.597 128.381 80.0885 128.381 80.6094ZM140.266 77.0938V86H138.459V75.4336H140.217L140.266 77.0938ZM143.566 75.375L143.557 77.0547C143.407 77.0221 143.264 77.0026 143.127 76.9961C142.997 76.9831 142.847 76.9766 142.678 76.9766C142.261 76.9766 141.893 77.0417 141.574 77.1719C141.255 77.3021 140.985 77.4844 140.764 77.7188C140.542 77.9531 140.367 78.2331 140.236 78.5586C140.113 78.8776 140.031 79.2292 139.992 79.6133L139.484 79.9062C139.484 79.2682 139.546 78.6693 139.67 78.1094C139.8 77.5495 139.999 77.0547 140.266 76.625C140.533 76.1888 140.871 75.8503 141.281 75.6094C141.698 75.362 142.193 75.2383 142.766 75.2383C142.896 75.2383 143.046 75.2546 143.215 75.2871C143.384 75.3132 143.501 75.3424 143.566 75.375ZM152.492 71.7812V86H150.607V71.7812H152.492ZM160.881 71.7812V86H159.025V71.7812H160.881ZM165.451 71.7812V73.3242H154.465V71.7812H165.451Z" fill="black"/>
<path d="M8.13672 79.2129V80.6973H3.37109V79.2129H8.13672Z" fill="black"/>
</svg>
